<?xml version="1.0" standalone="no"?>
<!DOCTYPE svg PUBLIC "-//W3C//DTD SVG 20010904//EN"
 "http://www.w3.org/TR/2001/REC-SVG-20010904/DTD/svg10.dtd">
<svg version="1.0" xmlns="http://www.w3.org/2000/svg"
 width="512.000000pt" height="512.000000pt" viewBox="0 0 512.000000 512.000000"
 preserveAspectRatio="xMidYMid meet">

<g transform="translate(0.000000,512.000000) scale(0.100000,-0.100000)"
fill="#000000" stroke="none">
<path d="M2145 5109 c-557 -61 -1097 -342 -1458 -759 -730 -844 -742 -2070
-29 -2920 397 -473 980 -767 1585 -797 l128 -6 64 -97 c126 -192 286 -333 480
-426 154 -74 257 -98 420 -98 109 -1 141 3 199 22 l68 22 72 -23 c59 -18 93
-22 201 -21 163 0 266 24 420 98 340 162 585 487 671 886 22 102 25 360 5 459
-54 272 -205 509 -427 667 l-41 30 24 79 c70 232 98 454 90 717 -6 200 -21
315 -62 479 -222 875 -952 1538 -1845 1674 -128 20 -442 27 -565 14z m115
-595 c0 -147 12 -183 67 -209 71 -34 153 12 167 92 3 21 6 84 6 141 l0 102 28
0 c81 0 297 -48 432 -95 78 -27 223 -89 239 -101 2 -2 -19 -44 -48 -94 -28
-49 -51 -97 -51 -106 0 -47 54 -77 94 -51 11 8 43 53 69 101 l49 86 75 -53
c149 -103 295 -245 416 -404 l47 -62 -72 -42 c-161 -92 -188 -117 -188 -175 0
-70 68 -133 131 -120 16 3 76 33 134 66 57 33 106 60 110 60 8 0 52 -103 90
-212 36 -103 79 -305 90 -425 l6 -72 -112 -3 c-108 -3 -113 -4 -132 -29 -17
-24 -18 -30 -5 -55 l13 -29 118 -3 119 -3 -7 -67 c-16 -173 -42 -302 -86 -439
l-20 -61 -65 -11 c-36 -7 -97 -23 -135 -37 -39 -14 -73 -23 -76 -21 -8 9 18
91 53 164 23 49 48 83 76 105 81 65 88 75 88 118 0 81 -74 114 -158 71 -36
-19 -106 -87 -148 -146 l-20 -29 -24 50 c-30 61 -100 132 -160 161 -92 45
-227 48 -328 8 -52 -21 -58 -41 -43 -132 37 -217 204 -347 420 -326 49 5 53 4
48 -13 -4 -11 -9 -31 -13 -46 -3 -16 -9 -28 -13 -28 -4 0 -47 16 -95 35 -220
89 -422 101 -601 34 -262 -96 -495 -358 -578 -649 -32 -110 -50 -252 -45 -364
l3 -88 -60 7 c-165 18 -389 82 -538 153 l-77 37 50 87 c27 48 50 99 50 112 0
33 -25 56 -60 56 -33 0 -57 -28 -111 -127 -19 -35 -39 -61 -45 -59 -41 15
-205 147 -299 240 -96 95 -225 249 -225 269 0 3 47 34 105 67 124 73 145 96
145 157 0 38 -5 50 -35 80 -33 33 -39 35 -83 31 -33 -4 -74 -21 -137 -58 -49
-28 -97 -56 -106 -60 -28 -15 -118 225 -159 425 -21 100 -40 272 -31 280 2 3
53 5 112 5 100 0 109 2 123 22 21 30 20 54 -4 78 -18 18 -33 20 -130 20 l-110
0 5 28 c2 15 7 60 10 101 7 97 29 203 66 326 33 106 97 265 108 265 3 0 38
-18 76 -41 132 -78 165 -91 201 -84 58 10 86 44 92 106 5 72 -9 89 -142 164
-58 33 -106 64 -106 68 0 16 119 163 197 243 43 44 106 104 141 132 69 57 182
136 186 130 2 -1 22 -37 46 -78 24 -41 50 -83 58 -92 19 -22 65 -23 86 -2 27
26 18 65 -34 154 l-49 85 87 43 c161 79 451 159 590 161 l42 1 0 -126z m1025
-2568 c28 -10 92 -36 142 -58 l93 -41 -6 -41 c-4 -22 -9 -43 -11 -46 -2 -2
-32 5 -66 17 -34 12 -65 18 -70 14 -11 -11 34 -72 73 -99 53 -35 133 -55 193
-47 95 13 172 57 203 117 19 37 6 41 -55 18 -76 -29 -81 -28 -81 25 l0 46 68
31 c163 74 198 83 328 83 119 0 120 0 198 -39 143 -70 283 -227 341 -381 159
-419 -43 -948 -439 -1156 -111 -58 -185 -79 -302 -86 -87 -5 -110 -3 -167 16
-83 28 -163 28 -241 1 -117 -40 -287 -21 -436 51 -243 116 -424 342 -500 624
-27 101 -38 298 -21 387 34 178 105 312 227 429 75 71 140 114 219 142 65 23
235 19 310 -7z"/>
<path d="M1352 3510 c-43 -26 -76 -99 -68 -145 14 -75 31 -86 450 -319 384
-213 398 -222 411 -259 32 -95 126 -159 232 -158 104 0 185 52 223 145 l22 53
383 212 c211 116 395 221 409 232 80 63 72 184 -16 240 -25 15 -45 19 -83 16
-43 -3 -104 -34 -433 -217 l-384 -214 -44 12 c-59 16 -117 15 -158 -2 l-33
-14 -394 219 c-350 194 -399 219 -439 219 -28 0 -58 -8 -78 -20z"/>
</g>
</svg>
