<?xml version="1.0" standalone="no"?>
<!DOCTYPE svg PUBLIC "-//W3C//DTD SVG 20010904//EN"
 "http://www.w3.org/TR/2001/REC-SVG-20010904/DTD/svg10.dtd">
<svg version="1.0" xmlns="http://www.w3.org/2000/svg"
 width="512.000000pt" height="512.000000pt" viewBox="0 0 512.000000 512.000000"
 preserveAspectRatio="xMidYMid meet">

<g transform="translate(0.000000,512.000000) scale(0.100000,-0.100000)"
fill="#000000" stroke="none">
<path d="M1127 3507 l-389 -332 -272 -93 -272 -93 -29 -107 c-28 -102 -32
-109 -97 -183 l-68 -77 0 -131 0 -131 25 0 c22 0 25 -4 25 -40 l0 -40 163 -2
162 -3 6 -52 c4 -29 20 -80 36 -115 116 -244 441 -299 633 -108 60 61 96 131
112 220 l12 60 370 0 371 0 303 77 302 77 108 94 c123 109 248 207 310 246
103 65 372 96 841 96 l251 1 0 484 0 485 -1257 0 -1258 -1 -388 -332z m1033
-77 l0 -260 -552 0 -553 0 30 29 c17 17 143 133 280 260 l250 231 273 0 272 0
0 -260z m-1310 -1029 c117 -82 76 -253 -64 -268 -101 -12 -188 94 -157 190 29
88 147 129 221 78z"/>
<path d="M3510 2710 c-246 -12 -413 -35 -475 -65 -51 -25 -177 -123 -320 -248
-44 -39 -89 -79 -100 -88 -12 -10 -171 -56 -395 -113 -206 -53 -384 -100 -395
-105 -14 -6 -29 -36 -50 -97 -22 -64 -41 -101 -70 -132 l-39 -44 24 -121 c24
-119 26 -122 53 -125 24 -3 27 -7 27 -43 l0 -39 139 0 139 0 26 -44 c84 -144
263 -200 410 -127 94 46 158 126 172 214 l7 37 813 0 814 0 0 -22 c0 -40 55
-142 95 -177 126 -110 305 -112 425 -4 28 25 60 63 71 84 l19 39 85 0 85 0 0
40 c0 36 3 40 25 40 l25 0 0 188 0 187 -43 132 -42 131 -195 221 c-140 159
-207 227 -236 241 -31 15 -76 23 -170 30 -192 14 -724 20 -924 10z m208 -282
l-3 -153 -388 -3 c-214 -1 -387 2 -385 6 1 5 50 68 108 140 l104 131 71 6
c140 13 292 22 393 24 l103 1 -3 -152z m714 135 c33 -7 52 -25 148 -143 60
-74 110 -138 110 -142 0 -5 -173 -8 -385 -8 l-385 0 0 156 0 157 238 -6 c130
-4 254 -10 274 -14z m-2039 -857 c43 -17 69 -59 69 -107 -2 -130 -186 -154
-223 -29 -15 51 11 107 61 132 42 22 51 22 93 4z m2275 -12 c13 -9 30 -32 39
-52 47 -113 -99 -208 -186 -121 -25 25 -31 39 -31 75 0 101 95 153 178 98z"/>
</g>
</svg>
