<?xml version="1.0" standalone="no"?>
<!DOCTYPE svg PUBLIC "-//W3C//DTD SVG 20010904//EN"
 "http://www.w3.org/TR/2001/REC-SVG-20010904/DTD/svg10.dtd">
<svg version="1.0" xmlns="http://www.w3.org/2000/svg"
 width="840.000000pt" height="859.000000pt" viewBox="0 0 840.000000 859.000000"
 preserveAspectRatio="xMidYMid meet">

<g transform="translate(0.000000,859.000000) scale(0.100000,-0.100000)"
fill="#000000" stroke="none">
<path d="M3470 5780 c0 -1613 -4 -2790 -9 -2790 -5 0 -22 7 -37 15 -16 8 -36
15 -44 15 -8 0 -62 16 -119 35 -57 19 -111 35 -120 35 -9 0 -27 6 -41 13 -14
7 -47 19 -75 26 -27 7 -68 20 -90 28 -22 8 -74 25 -115 38 -41 12 -121 36
-177 54 -121 37 -144 38 -218 10 -70 -26 -109 -59 -153 -128 -31 -48 -36 -66
-40 -131 -5 -92 5 -117 91 -237 20 -29 37 -56 37 -62 0 -5 4 -11 9 -13 5 -1
44 -55 86 -118 84 -124 192 -281 291 -425 35 -49 101 -146 148 -215 47 -69
100 -145 117 -170 17 -25 60 -87 95 -137 35 -51 93 -135 128 -185 35 -51 77
-113 95 -138 17 -25 57 -83 88 -130 31 -47 59 -87 62 -90 4 -3 28 -39 56 -80
27 -41 51 -77 54 -80 3 -3 42 -58 86 -123 44 -65 87 -129 95 -141 8 -12 27
-38 43 -57 15 -20 27 -39 27 -43 0 -4 18 -30 39 -59 41 -54 112 -158 234 -339
41 -61 78 -107 86 -105 8 1 36 34 63 72 74 106 142 209 147 220 2 6 7 12 11
15 4 3 51 70 105 150 54 80 107 157 119 172 12 15 33 46 49 70 15 24 73 108
128 188 55 80 126 183 157 229 31 46 66 96 77 111 29 40 108 155 210 305 48
72 96 141 107 155 10 14 29 41 42 60 12 19 48 72 79 118 31 45 81 117 110 160
69 100 149 215 188 272 18 25 64 92 104 150 40 58 102 148 139 200 36 52 82
126 102 165 34 64 36 74 32 135 -9 123 -101 234 -220 266 -76 20 -92 18 -229
-26 -68 -22 -142 -45 -164 -51 -22 -5 -56 -16 -75 -24 -19 -7 -96 -32 -170
-55 -74 -23 -160 -50 -190 -61 -30 -10 -77 -25 -105 -33 -27 -7 -58 -17 -67
-21 -17 -7 -18 130 -18 2784 l0 2791 -730 0 -730 0 0 -2790z"/>
</g>
</svg>
