<?xml version="1.0" standalone="no"?>
<!DOCTYPE svg PUBLIC "-//W3C//DTD SVG 20010904//EN"
 "http://www.w3.org/TR/2001/REC-SVG-20010904/DTD/svg10.dtd">
<svg version="1.0" xmlns="http://www.w3.org/2000/svg"
 width="296.000000pt" height="171.000000pt" viewBox="0 0 296.000000 171.000000"
 preserveAspectRatio="xMidYMid meet">

<g transform="translate(0.000000,171.000000) scale(0.100000,-0.100000)"
fill="#000000" stroke="none">
<path d="M1395 1564 c-11 -2 -45 -9 -75 -15 -150 -29 -330 -156 -423 -297
-229 -347 -104 -821 264 -1007 108 -55 175 -70 319 -70 144 0 211 15 319 70
315 159 462 544 333 875 -77 199 -266 370 -472 425 -56 16 -228 28 -265 19z
m-81 -373 c41 -26 86 -109 86 -158 l0 -34 -57 3 c-56 3 -57 3 -64 38 -9 40
-32 60 -72 60 -77 0 -92 -39 -92 -235 0 -167 9 -199 59 -224 21 -10 40 -11 65
-5 l36 9 3 68 3 67 -41 0 -40 0 0 55 0 55 100 0 101 0 -3 -152 -3 -152 -49
-30 c-40 -25 -62 -31 -121 -34 -107 -6 -157 23 -206 118 -20 40 -24 62 -27
195 -5 171 5 230 49 299 40 64 92 88 176 83 40 -3 74 -12 97 -26z m554 -4 c27
-18 49 -45 69 -84 26 -55 28 -66 32 -214 4 -181 -9 -246 -61 -304 -43 -50 -77
-65 -144 -65 -79 0 -130 31 -170 102 l-29 53 0 190 c0 186 1 191 26 240 15 28
35 58 46 67 60 54 162 61 231 15z"/>
<path d="M1710 1075 c-46 -49 -53 -332 -10 -403 36 -59 109 -52 136 13 20 48
20 312 0 360 -25 58 -85 73 -126 30z"/>
</g>
</svg>
