<?xml version="1.0" standalone="no"?>
<!DOCTYPE svg PUBLIC "-//W3C//DTD SVG 20010904//EN"
 "http://www.w3.org/TR/2001/REC-SVG-20010904/DTD/svg10.dtd">
<svg version="1.0" xmlns="http://www.w3.org/2000/svg"
 width="360.000000pt" height="360.000000pt" viewBox="0 0 360.000000 360.000000"
 preserveAspectRatio="xMidYMid meet">
<metadata>
Created by potrace 1.16, written by Peter Selinger 2001-2019
</metadata>
<g transform="translate(0.000000,360.000000) scale(0.100000,-0.100000)"
fill="#000000" stroke="none">
<path d="M1725 3121 c-96 -26 -179 -91 -223 -176 l-27 -50 -5 -380 -5 -380
-375 -5 c-394 -6 -403 -7 -480 -55 -41 -26 -103 -92 -123 -132 -29 -57 -41
-138 -28 -199 16 -85 46 -137 106 -193 93 -84 95 -85 528 -89 l377 -3 0 -364
c0 -348 1 -367 21 -422 44 -115 158 -200 282 -210 149 -12 279 68 344 212 16
36 18 80 21 413 l3 372 352 0 c429 0 464 7 561 103 68 69 91 126 91 232 0 79
-4 96 -28 143 -52 98 -137 161 -246 182 -30 5 -205 10 -392 10 l-338 0 -3 373
-3 372 -26 55 c-56 116 -164 190 -288 196 -36 2 -79 0 -96 -5z"/>
</g>
</svg>
