<?xml version="1.0" standalone="no"?>
<!DOCTYPE svg PUBLIC "-//W3C//DTD SVG 20010904//EN"
 "http://www.w3.org/TR/2001/REC-SVG-20010904/DTD/svg10.dtd">
<svg version="1.0" xmlns="http://www.w3.org/2000/svg"
 width="820.000000pt" height="706.000000pt" viewBox="0 0 820.000000 706.000000"
 preserveAspectRatio="xMidYMid meet">
<metadata>
Created by potrace 1.16, written by Peter Selinger 2001-2019
</metadata>
<g transform="translate(0.000000,706.000000) scale(0.100000,-0.100000)"
fill="#000000" stroke="none">
<path d="M3455 7035 c-151 -28 -297 -98 -412 -197 -32 -27 -215 -206 -408
-396 -438 -434 -804 -795 -1585 -1563 -1034 -1017 -965 -947 -998 -1014 -76
-153 -64 -356 27 -481 15 -22 266 -273 557 -558 291 -286 646 -635 789 -776
143 -141 489 -481 770 -755 280 -275 587 -576 682 -669 194 -190 256 -240 362
-292 127 -62 243 -87 411 -87 124 0 159 4 241 25 169 46 300 126 426 263 126
137 209 307 232 478 6 43 11 238 11 434 l0 355 63 -6 c256 -26 406 -48 594
-87 532 -110 1030 -333 1391 -624 249 -202 510 -495 732 -825 132 -195 241
-258 436 -248 116 6 198 42 283 123 66 63 104 126 126 210 29 111 19 820 -16
1125 -117 1026 -588 1970 -1361 2726 -489 478 -1039 814 -1683 1029 -143 47
-391 114 -502 136 l-62 11 -3 462 c-4 438 -5 465 -26 541 -96 346 -384 611
-722 665 -88 13 -269 11 -355 -5z m338 -2489 c211 -9 338 -22 506 -52 635
-111 1221 -389 1716 -813 567 -486 951 -1081 1141 -1770 19 -68 32 -126 30
-128 -2 -3 -42 25 -89 60 -484 369 -1093 628 -1807 766 -407 78 -773 112
-1377 127 l-273 6 -2 -795 -3 -796 -215 212 c-456 449 -1650 1628 -1975 1950
l-340 337 100 96 c55 53 267 261 470 462 375 372 754 746 1530 1512 l430 425
3 -796 2 -796 153 -7z"/>
</g>
</svg>
