<?xml version="1.0" standalone="no"?>
<!DOCTYPE svg PUBLIC "-//W3C//DTD SVG 20010904//EN"
 "http://www.w3.org/TR/2001/REC-SVG-20010904/DTD/svg10.dtd">
<svg version="1.0" xmlns="http://www.w3.org/2000/svg"
 width="860.000000pt" height="877.000000pt" viewBox="0 0 860.000000 877.000000"
 preserveAspectRatio="xMidYMid meet">

<g transform="translate(0.000000,877.000000) scale(0.100000,-0.100000)"
fill="#000000" stroke="none">
<path d="M6084 8170 c-99 -15 -186 -78 -236 -173 -22 -40 -23 -53 -26 -339 -2
-164 -6 -298 -9 -298 -3 0 -71 35 -152 79 -570 308 -991 459 -1429 515 -107
14 -301 16 -1441 16 -1280 0 -1320 -1 -1395 -20 -114 -29 -189 -73 -281 -165
-126 -125 -185 -266 -185 -440 0 -105 21 -190 70 -284 51 -97 106 -160 191
-220 l68 -48 -72 -6 c-139 -10 -277 -73 -378 -172 -293 -285 -247 -755 94
-976 l58 -37 -68 -7 c-175 -18 -289 -70 -409 -190 -60 -60 -89 -99 -117 -155
-120 -246 -74 -527 117 -720 73 -74 147 -120 251 -156 69 -23 101 -27 233 -32
l153 -5 -52 -29 c-28 -17 -82 -60 -120 -98 -53 -53 -77 -88 -112 -161 -52
-109 -67 -170 -67 -278 0 -161 57 -303 171 -425 110 -117 244 -183 394 -193
55 -3 236 9 580 41 1214 112 1450 133 1453 131 1 -1 -12 -33 -29 -71 -69 -154
-203 -497 -264 -677 -138 -413 -222 -800 -276 -1280 -30 -262 -29 -381 4 -482
45 -135 143 -260 260 -328 142 -84 330 -104 482 -53 138 47 261 144 329 259
14 25 69 157 122 294 205 531 354 881 504 1188 316 644 647 1056 1085 1354 91
62 220 141 230 141 2 0 5 -123 7 -272 3 -260 4 -275 26 -319 29 -59 84 -114
147 -147 l50 -27 1010 0 1010 0 46 21 c67 31 124 87 156 152 l28 57 3 2385 c2
2169 1 2389 -14 2435 -31 95 -100 167 -196 203 -39 15 -136 17 -998 18 -525 1
-978 -2 -1006 -6z m1586 -2630 l0 -2010 -615 0 -615 0 0 2003 c0 1102 3 2007
7 2010 3 4 280 7 615 7 l608 0 0 -2010z"/>
</g>
</svg>
