<?xml version="1.0" standalone="no"?>
<!DOCTYPE svg PUBLIC "-//W3C//DTD SVG 20010904//EN"
 "http://www.w3.org/TR/2001/REC-SVG-20010904/DTD/svg10.dtd">
<svg version="1.0" xmlns="http://www.w3.org/2000/svg"
 width="2048.000000pt" height="2048.000000pt" viewBox="0 0 2048.000000 2048.000000"
 preserveAspectRatio="xMidYMid meet">

<g transform="translate(0.000000,2048.000000) scale(0.100000,-0.100000)"
fill="#000000" stroke="none">
<path d="M2115 20474 c-456 -37 -869 -194 -1230 -467 -97 -74 -275 -245 -360
-348 -162 -194 -324 -482 -403 -720 -43 -130 -81 -290 -104 -444 -20 -134 -20
-16376 0 -16510 41 -273 109 -495 218 -715 117 -235 229 -394 409 -579 354
-364 797 -590 1310 -668 115 -17 453 -18 8285 -18 7810 0 8170 1 8284 18 151
23 354 74 481 122 217 81 480 234 654 380 82 68 252 239 318 320 128 157 283
428 358 630 48 127 99 330 122 481 17 114 18 474 18 8284 0 7810 -1 8170 -18
8284 -23 151 -74 354 -122 481 -75 202 -230 473 -358 630 -66 81 -236 252
-318 320 -195 164 -481 323 -724 404 -130 43 -230 68 -401 98 -94 17 -534 18
-8239 19 -4477 0 -8158 -1 -8180 -2z m9355 -1844 c1131 -48 2070 -224 2874
-536 951 -370 1732 -942 2278 -1669 537 -715 847 -1582 943 -2635 22 -243 31
-776 16 -1030 -36 -620 -131 -1131 -305 -1637 -569 -1651 -1943 -2770 -3953
-3218 -467 -104 -897 -163 -1578 -216 -104 -9 -687 -13 -1897 -16 l-1748 -4 0
-2915 0 -2914 -2170 0 -2170 0 0 8400 0 8400 3738 0 c2342 0 3825 -4 3972 -10z"/>
<path d="M8100 13155 l0 -2346 1368 4 c1438 4 1428 4 1722 53 600 100 1065
333 1393 699 277 311 446 699 514 1185 13 95 17 193 17 410 0 308 -11 429 -60
650 -191 855 -804 1421 -1744 1610 -369 74 -506 80 -1967 80 l-1243 0 0 -2345z"/>
</g>
</svg>
