<?xml version="1.0" standalone="no"?>
<!DOCTYPE svg PUBLIC "-//W3C//DTD SVG 20010904//EN"
 "http://www.w3.org/TR/2001/REC-SVG-20010904/DTD/svg10.dtd">
<svg version="1.0" xmlns="http://www.w3.org/2000/svg"
 width="640.000000pt" height="640.000000pt" viewBox="0 0 640.000000 640.000000"
 preserveAspectRatio="xMidYMid meet">

<g transform="translate(0.000000,640.000000) scale(0.100000,-0.100000)"
fill="#000000" stroke="none">
<path d="M2975 5251 c-379 -68 -704 -297 -905 -638 -215 -367 -225 -865 -24
-1239 73 -136 113 -191 243 -333 99 -108 140 -157 209 -251 299 -403 531 -913
658 -1441 20 -85 40 -163 44 -174 8 -18 9 -17 9 7 1 43 86 360 134 503 70 206
132 356 232 560 162 328 320 559 569 829 195 212 310 455 347 731 18 134 6
346 -25 470 -62 244 -175 444 -349 617 -302 299 -726 432 -1142 359z"/>
</g>
</svg>
