<?xml version="1.0" standalone="no"?>
<!DOCTYPE svg PUBLIC "-//W3C//DTD SVG 20010904//EN"
 "http://www.w3.org/TR/2001/REC-SVG-20010904/DTD/svg10.dtd">
<svg version="1.0" xmlns="http://www.w3.org/2000/svg"
 width="860.000000pt" height="877.000000pt" viewBox="0 0 860.000000 877.000000"
 preserveAspectRatio="xMidYMid meet">

<g transform="translate(0.000000,877.000000) scale(0.100000,-0.100000)"
fill="#000000" stroke="none">
<path d="M5149 8360 c-170 -26 -338 -139 -423 -284 -14 -24 -69 -156 -122
-293 -205 -531 -354 -881 -504 -1188 -316 -644 -647 -1056 -1085 -1354 -91
-62 -220 -141 -230 -141 -2 0 -5 123 -7 273 -3 259 -4 274 -26 318 -29 59 -84
114 -147 147 l-50 27 -1010 0 -1010 0 -46 -21 c-67 -31 -124 -87 -156 -152
l-28 -57 -3 -2385 c-2 -2169 -1 -2389 14 -2435 31 -97 113 -178 208 -208 31
-9 272 -12 1026 -12 l985 0 55 26 c74 34 120 76 156 141 l29 53 3 297 c2 164
6 298 9 298 3 0 71 -35 152 -79 570 -308 991 -459 1429 -515 107 -14 301 -16
1441 -16 1280 0 1320 1 1395 20 114 29 189 73 281 165 126 125 185 266 185
440 0 105 -21 190 -70 284 -51 97 -106 160 -191 220 l-68 48 72 6 c139 10 277
73 378 172 293 285 247 755 -94 976 l-58 37 68 7 c175 18 289 70 409 190 60
60 89 99 117 155 120 246 74 527 -117 720 -73 74 -147 120 -251 156 -69 23
-101 27 -233 32 l-153 5 52 29 c28 17 82 60 120 98 53 53 77 88 112 161 52
109 67 170 67 278 0 161 -57 303 -171 425 -110 117 -244 183 -394 193 -55 3
-236 -9 -580 -41 -1214 -112 -1450 -133 -1453 -131 -1 1 12 33 29 71 69 154
203 497 264 677 138 413 222 800 276 1280 30 262 29 381 -4 482 -45 135 -143
260 -260 328 -106 63 -270 95 -388 77z m-2991 -5127 l-3 -2008 -612 -3 -613
-2 0 2010 0 2010 615 0 615 0 -2 -2007z"/>
</g>
</svg>
