<?xml version="1.0" standalone="no"?>
<!DOCTYPE svg PUBLIC "-//W3C//DTD SVG 20010904//EN"
 "http://www.w3.org/TR/2001/REC-SVG-20010904/DTD/svg10.dtd">
<svg version="1.0" xmlns="http://www.w3.org/2000/svg"
 width="512.000000pt" height="512.000000pt" viewBox="0 0 512.000000 512.000000"
 preserveAspectRatio="xMidYMid meet">

<g transform="translate(0.000000,512.000000) scale(0.100000,-0.100000)"
fill="#000000" stroke="none">
<path d="M3616 4049 c-164 -13 -199 -24 -244 -73 -22 -23 -47 -55 -57 -69 -14
-22 -25 -27 -60 -27 -63 0 -75 -7 -75 -46 0 -26 4 -34 18 -34 41 -1 44 -14 22
-81 -15 -43 -24 -99 -27 -169 l-5 -105 58 59 c44 44 58 65 56 83 -4 31 47 83
83 83 24 0 66 -32 76 -56 3 -7 37 -6 104 3 55 8 179 15 275 16 149 2 179 5
200 20 36 25 68 21 99 -12 21 -23 41 -32 81 -37 l52 -7 -7 44 c-4 24 -16 66
-26 93 -10 28 -18 50 -16 51 1 1 18 6 37 11 25 7 36 16 38 32 6 38 -15 52 -77
53 l-56 0 -45 62 c-25 34 -56 67 -70 74 -55 26 -291 44 -434 32z m352 -72 c29
-8 62 -23 73 -33 22 -20 99 -151 99 -169 0 -7 -143 -10 -410 -10 -225 0 -410
1 -410 3 0 9 57 113 81 149 32 46 60 59 161 73 88 12 342 4 406 -13z"/>
<path d="M1204 4031 c-163 -19 -190 -33 -255 -128 -28 -41 -32 -43 -79 -43
-67 0 -80 -7 -80 -41 0 -25 5 -30 30 -36 17 -3 33 -9 35 -13 3 -4 -4 -32 -14
-61 -10 -30 -21 -73 -25 -97 -6 -39 -4 -43 11 -38 10 2 37 8 61 11 23 4 42 11
42 16 0 19 41 49 69 49 15 0 40 -9 53 -20 23 -17 36 -19 144 -13 105 5 298 -6
407 -24 29 -4 37 -2 37 10 0 22 39 47 73 47 34 0 77 -40 77 -72 0 -15 20 -43
55 -78 l55 -54 -1 79 c0 70 -20 174 -43 227 -6 13 -1 19 26 26 29 7 33 12 33
43 l0 34 -60 3 -60 3 -39 55 c-56 77 -68 86 -144 100 -86 17 -317 25 -408 15z
m254 -51 c180 -15 207 -28 266 -134 62 -113 106 -101 -369 -101 -228 0 -415 1
-415 3 0 12 74 145 94 169 30 36 85 52 211 63 44 4 85 8 90 8 6 1 61 -3 123
-8z"/>
<path d="M2540 3560 c0 -47 3 -60 15 -60 12 0 15 13 15 60 0 47 -3 60 -15 60
-12 0 -15 -13 -15 -60z"/>
<path d="M1195 3514 c-342 -32 -357 -38 -452 -171 l-45 -63 -58 0 c-82 0 -110
-12 -110 -49 0 -34 15 -49 58 -57 18 -4 32 -9 32 -13 0 -3 -11 -39 -25 -80
-14 -40 -28 -98 -32 -129 l-6 -55 26 7 c15 3 47 9 72 13 37 5 49 11 60 33 21
40 78 65 118 51 17 -6 41 -21 53 -32 21 -19 27 -20 145 -11 126 10 288 3 500
-21 l106 -13 16 29 c19 33 74 58 108 50 41 -10 79 -53 79 -89 0 -26 13 -45 76
-108 l77 -76 -5 127 c-4 107 -10 142 -35 215 l-29 88 53 15 c48 14 53 18 53
45 0 43 -31 60 -112 60 l-67 0 -33 48 c-62 90 -107 131 -162 147 -85 24 -367
48 -461 39z m265 -80 c36 -3 95 -12 132 -20 57 -13 73 -22 101 -55 35 -40 136
-225 127 -231 -3 -2 -128 0 -278 5 -161 6 -384 6 -540 0 -147 -4 -269 -7 -271
-6 -12 7 92 204 129 243 57 61 306 88 600 64z"/>
<path d="M3730 3513 c-149 -13 -290 -36 -326 -54 -29 -14 -59 -43 -100 -99
l-59 -80 -60 -1 c-88 -1 -109 -10 -113 -43 -4 -29 12 -56 34 -56 7 0 24 -4 38
-9 l24 -10 -23 -68 c-31 -90 -45 -177 -45 -292 l0 -93 76 78 c60 62 76 85 75
106 -3 41 26 88 66 104 48 21 98 4 125 -42 11 -19 22 -34 25 -34 2 0 57 7 121
15 200 25 370 34 492 25 112 -9 116 -8 140 14 14 13 36 26 49 29 32 8 86 -15
106 -46 12 -20 30 -28 79 -36 34 -6 67 -11 73 -11 14 0 -1 87 -29 169 -12 36
-23 70 -23 76 0 5 20 14 45 20 40 10 45 14 48 40 4 51 -9 59 -95 63 l-78 4
-40 60 c-57 85 -103 124 -162 136 -112 24 -368 44 -463 35z m353 -89 c103 -17
137 -32 170 -76 25 -33 121 -218 115 -222 -2 -1 -95 2 -208 6 -200 8 -839 2
-866 -9 -23 -8 -16 23 17 90 57 112 97 167 134 183 119 50 423 63 638 28z"/>
<path d="M2530 3365 c0 -73 1 -75 25 -75 24 0 25 2 25 75 0 73 -1 75 -25 75
-24 0 -25 -2 -25 -75z"/>
<path d="M2527 3213 c-4 -3 -7 -51 -7 -105 l0 -98 35 0 35 0 0 89 c0 49 -3 96
-6 105 -6 16 -45 22 -57 9z"/>
<path d="M2508 2835 c-1 -63 -2 -123 -2 -132 -1 -15 8 -18 49 -18 41 0 50 3
49 18 0 9 -1 69 -2 132 l-2 115 -45 0 -45 0 -2 -115z"/>
<path d="M985 2853 c-124 -9 -367 -44 -427 -63 -58 -18 -74 -28 -118 -78 -28
-31 -75 -92 -103 -134 l-52 -77 -100 -1 c-124 0 -145 -11 -145 -73 0 -23 4
-47 8 -54 4 -6 32 -18 62 -26 65 -16 65 -15 21 -141 -44 -126 -62 -242 -64
-424 -2 -145 0 -160 20 -197 19 -34 23 -58 25 -166 4 -173 0 -169 174 -169
l133 0 16 30 c10 20 15 58 15 121 l0 91 30 -5 c215 -43 1155 -43 1328 0 22 5
22 4 22 -85 0 -83 2 -93 26 -121 l26 -31 116 0 c65 0 122 4 128 8 36 25 44 57
44 173 0 102 2 118 20 134 42 38 54 133 41 325 -11 148 -41 286 -81 378 -11
24 -20 48 -20 53 0 4 26 13 58 20 31 7 63 17 70 22 6 5 12 31 12 58 0 69 -18
79 -147 79 l-102 0 -61 89 c-88 129 -147 186 -208 205 -154 45 -535 75 -767
59z m436 -114 c131 -13 272 -43 313 -67 17 -10 48 -40 69 -68 35 -46 182 -323
175 -330 -2 -1 -98 1 -213 6 -265 12 -967 12 -1230 0 -110 -4 -202 -6 -204 -4
-8 8 101 222 151 301 55 85 86 106 183 129 177 41 531 56 756 33z m-883 -676
c85 -63 85 -194 1 -254 -69 -49 -169 -30 -216 40 -36 53 -39 93 -12 148 34 68
79 96 147 91 32 -3 64 -13 80 -25z m1392 8 c45 -23 80 -84 80 -137 0 -49 -30
-98 -80 -132 -89 -60 -230 20 -230 131 0 116 128 193 230 138z"/>
<path d="M3795 2853 c-224 -19 -425 -52 -474 -77 -38 -20 -122 -113 -182 -203
l-50 -73 -94 0 c-51 0 -105 -4 -119 -10 -24 -9 -26 -15 -26 -65 0 -61 0 -61
88 -85 35 -9 42 -15 37 -28 -76 -187 -94 -274 -101 -497 -6 -175 -5 -181 17
-220 20 -34 24 -59 28 -176 4 -94 10 -141 20 -152 11 -14 35 -17 151 -17 162
0 150 -12 150 144 l0 98 31 -6 c214 -42 1125 -42 1339 1 l30 5 0 -94 c0 -87 2
-97 25 -122 24 -26 26 -27 147 -24 l122 3 23 34 c20 30 23 46 23 142 0 98 2
111 24 144 34 49 40 103 33 275 -7 179 -28 286 -85 427 l-21 52 57 11 c86 18
92 23 92 80 0 71 -17 80 -150 80 l-105 1 -54 80 c-71 106 -145 186 -188 204
-112 47 -575 87 -788 68z m545 -127 c104 -18 183 -41 217 -64 12 -7 43 -45 67
-82 49 -75 163 -296 156 -304 -3 -2 -95 0 -205 4 -256 11 -970 11 -1235 0
-113 -4 -207 -7 -208 -5 -10 9 154 307 193 351 40 47 52 54 122 72 43 12 114
26 158 31 44 6 94 13 110 15 77 11 534 -3 625 -18z m-1010 -657 c75 -42 102
-143 58 -209 -38 -55 -73 -75 -133 -75 -60 0 -95 20 -132 75 -50 73 -12 183
77 222 31 14 93 8 130 -13z m1400 6 c41 -21 78 -74 85 -120 7 -48 -24 -117
-68 -149 -41 -30 -131 -29 -175 2 -97 70 -81 227 28 271 37 15 97 13 130 -4z"/>
<path d="M2497 2493 c-4 -54 -7 -126 -7 -160 l0 -63 65 0 65 0 0 53 c0 30 -3
102 -7 160 l-6 107 -52 0 -52 0 -6 -97z"/>
<path d="M2480 2103 c0 -38 -3 -125 -7 -195 l-6 -128 88 0 88 0 -6 128 c-4 70
-7 157 -7 195 l0 67 -75 0 -75 0 0 -67z"/>
<path d="M2456 1478 c-3 -101 -9 -236 -13 -300 l-6 -118 118 0 118 0 -6 118
c-4 64 -10 199 -13 300 l-7 182 -92 0 -92 0 -7 -182z"/>
</g>
</svg>
