<?xml version="1.0" standalone="no"?>
<!DOCTYPE svg PUBLIC "-//W3C//DTD SVG 20010904//EN"
 "http://www.w3.org/TR/2001/REC-SVG-20010904/DTD/svg10.dtd">
<svg version="1.0" xmlns="http://www.w3.org/2000/svg"
 width="690.000000pt" height="688.000000pt" viewBox="0 0 690.000000 688.000000"
 preserveAspectRatio="xMidYMid meet">

<g transform="translate(0.000000,688.000000) scale(0.100000,-0.100000)"
fill="#000000" stroke="none">
<path d="M0 3440 l0 -3440 3450 0 3450 0 0 3440 0 3440 -3450 0 -3450 0 0
-3440z m4045 238 c4 -376 5 -714 3 -753 l-3 -70 -99 0 -98 0 -43 75 c-93 164
-162 211 -316 218 -169 7 -249 -32 -325 -162 -20 -33 -48 -78 -62 -98 l-25
-38 -598 0 -598 0 -40 73 c-50 90 -109 159 -165 192 -51 30 -143 44 -223 34
-182 -22 -250 -83 -322 -294 l-34 -98 -170 7 c-94 3 -172 8 -174 10 -2 2 -7
35 -10 72 -5 67 -5 70 21 83 43 23 45 46 37 391 -4 131 -3 138 29 225 18 50
45 135 61 191 51 183 82 248 140 292 46 36 88 42 273 42 100 0 205 3 234 6
l52 7 0 132 c0 72 3 135 7 138 3 4 554 7 1223 7 l1218 0 7 -682z m615 96 l0
-574 -270 0 -270 0 0 575 0 575 263 2 c144 2 265 2 270 0 4 -2 7 -262 7 -578z
m810 71 c58 -30 77 -94 45 -154 -14 -28 -68 -61 -100 -61 -31 0 -81 30 -98 59
-58 99 50 209 153 156z m136 -211 c81 -38 179 -182 319 -469 81 -163 265 -596
265 -621 0 -11 -48 -2 -76 15 -39 24 -64 57 -143 191 -59 100 -170 260 -181
260 -3 0 -25 -19 -49 -42 -68 -66 -85 -112 -88 -248 -2 -63 -6 -125 -8 -137
-6 -26 -31 -53 -50 -53 -24 0 -45 79 -55 204 -14 170 -3 224 70 339 22 35 40
69 40 74 0 14 -71 106 -77 100 -2 -3 -9 -38 -14 -78 -5 -40 -16 -80 -25 -90
-15 -17 -94 -42 -103 -33 -3 2 1 24 8 47 26 89 29 124 21 217 -20 205 -10 275
48 320 30 24 53 25 98 4z m-383 -340 c73 -69 132 -132 132 -140 0 -12 -533
-535 -545 -534 -3 1 -66 59 -140 131 l-135 130 275 269 c151 149 276 270 278
270 2 0 63 -57 135 -126z m-3573 -247 c43 -21 75 -46 97 -75 89 -118 79 -297
-22 -395 -168 -163 -470 -99 -531 111 -21 72 -15 182 14 237 76 148 278 204
442 122z m1962 15 c108 -53 168 -154 168 -285 -1 -118 -50 -200 -155 -255 -45
-24 -61 -27 -155 -27 -95 0 -110 3 -156 27 -59 31 -117 92 -139 145 -44 105
-25 236 46 317 69 78 144 107 264 103 58 -2 94 -9 127 -25z m497 -372 l46
-105 210 0 c190 0 214 -2 250 -20 30 -15 39 -25 37 -40 -7 -43 4 -41 -353 -37
l-216 2 -39 96 c-21 52 -46 100 -55 105 -10 5 -33 9 -51 9 -24 0 -42 8 -61 28
-26 27 -26 29 -10 44 28 24 43 27 121 25 l74 -2 47 -105z m926 -35 c33 -32 33
-84 1 -122 -32 -37 -93 -39 -130 -4 -35 33 -36 92 -1 126 34 35 96 35 130 0z"/>
<path d="M1089 3954 c-6 -16 -39 -105 -74 -199 -35 -93 -66 -178 -70 -187 -7
-17 12 -18 319 -18 l326 0 0 210 0 210 -229 0 c-126 0 -236 3 -245 6 -11 4
-19 -3 -27 -22z"/>
</g>
</svg>
